<?xml version="1.0" standalone="no"?>
<!DOCTYPE svg PUBLIC "-//W3C//DTD SVG 20010904//EN"
 "http://www.w3.org/TR/2001/REC-SVG-20010904/DTD/svg10.dtd">
<svg version="1.0" xmlns="http://www.w3.org/2000/svg"
 width="16.000000pt" height="16.000000pt" viewBox="0 0 16.000000 16.000000"
 preserveAspectRatio="xMidYMid meet">

<g transform="translate(0.000000,16.000000) scale(0.100000,-0.100000)"
fill="#000000" stroke="none">
<path d="M61 135 c-28 -13 -33 -19 -29 -40 3 -14 -1 -30 -8 -36 -19 -15 -18
-39 1 -39 9 0 14 8 12 22 -1 14 4 23 13 24 32 2 34 6 12 15 -19 7 -21 11 -10
23 15 16 28 11 28 -10 0 -12 4 -12 20 -4 24 13 26 30 5 30 -8 0 -15 5 -15 11
0 5 5 7 12 3 7 -4 8 -3 4 4 -4 7 -8 12 -9 12 -1 -1 -17 -7 -36 -15z"/>
<path d="M95 74 c-17 -13 -36 -22 -43 -19 -6 2 -12 0 -12 -5 0 -6 5 -10 10
-10 6 0 10 -7 10 -15 0 -15 49 -22 51 -7 0 4 2 18 3 30 2 13 8 27 15 32 7 4 9
10 5 13 -5 3 -23 -6 -39 -19z"/>
</g>
</svg>
